<svg xmlns="http://www.w3.org/2000/svg" viewBox="0 0 231 55" width="231" height="55" role="img" aria-label="concile"><rect x="8" y="16" width="7" height="7" rx="1.3" fill="#ffffff"/><rect x="16" y="16" width="7" height="7" rx="1.3" fill="#ffffff"/><rect x="24" y="16" width="7" height="7" rx="1.3" fill="#ffffff"/><rect x="0" y="24" width="7" height="7" rx="1.3" fill="#ffffff"/><rect x="0" y="32" width="7" height="7" rx="1.3" fill="#ffffff"/><rect x="0" y="40" width="7" height="7" rx="1.3" fill="#ffffff"/><rect x="8" y="48" width="7" height="7" rx="1.3" fill="#ffffff"/><rect x="16" y="48" width="7" height="7" rx="1.3" fill="#ffffff"/><rect x="24" y="48" width="7" height="7" rx="1.3" fill="#ffffff"/><rect x="48" y="16" width="7" height="7" rx="1.3" fill="#ffffff"/><rect x="56" y="16" width="7" height="7" rx="1.3" fill="#ffffff"/><rect x="40" y="24" width="7" height="7" rx="1.3" fill="#ffffff"/><rect x="64" y="24" width="7" height="7" rx="1.3" fill="#ffffff"/><rect x="40" y="32" width="7" height="7" rx="1.3" fill="#ffffff"/><rect x="64" y="32" width="7" height="7" rx="1.3" fill="#ffffff"/><rect x="40" y="40" width="7" height="7" rx="1.3" fill="#ffffff"/><rect x="64" y="40" width="7" height="7" rx="1.3" fill="#ffffff"/><rect x="48" y="48" width="7" height="7" rx="1.3" fill="#ffffff"/><rect x="56" y="48" width="7" height="7" rx="1.3" fill="#ffffff"/><rect x="80" y="16" width="7" height="7" rx="1.3" fill="#ffffff"/><rect x="88" y="16" width="7" height="7" rx="1.3" fill="#ffffff"/><rect x="96" y="16" width="7" height="7" rx="1.3" fill="#ffffff"/><rect x="80" y="24" width="7" height="7" rx="1.3" fill="#ffffff"/><rect x="104" y="24" width="7" height="7" rx="1.3" fill="#ffffff"/><rect x="80" y="32" width="7" height="7" rx="1.3" fill="#ffffff"/><rect x="104" y="32" width="7" height="7" rx="1.3" fill="#ffffff"/><rect x="80" y="40" width="7" height="7" rx="1.3" fill="#ffffff"/><rect x="104" y="40" width="7" height="7" rx="1.3" fill="#ffffff"/><rect x="80" y="48" width="7" height="7" rx="1.3" fill="#ffffff"/><rect x="104" y="48" width="7" height="7" rx="1.3" fill="#ffffff"/><rect x="128" y="16" width="7" height="7" rx="1.3" fill="#ffffff"/><rect x="136" y="16" width="7" height="7" rx="1.3" fill="#ffffff"/><rect x="144" y="16" width="7" height="7" rx="1.3" fill="#ffffff"/><rect x="120" y="24" width="7" height="7" rx="1.3" fill="#ffffff"/><rect x="120" y="32" width="7" height="7" rx="1.3" fill="#ffffff"/><rect x="120" y="40" width="7" height="7" rx="1.3" fill="#ffffff"/><rect x="128" y="48" width="7" height="7" rx="1.3" fill="#ffffff"/><rect x="136" y="48" width="7" height="7" rx="1.3" fill="#ffffff"/><rect x="144" y="48" width="7" height="7" rx="1.3" fill="#ffffff"/><rect x="160" y="0" width="7" height="7" rx="1.3" fill="#a78bfa"/><rect x="160" y="16" width="7" height="7" rx="1.3" fill="#ffffff"/><rect x="160" y="24" width="7" height="7" rx="1.3" fill="#ffffff"/><rect x="160" y="32" width="7" height="7" rx="1.3" fill="#ffffff"/><rect x="160" y="40" width="7" height="7" rx="1.3" fill="#ffffff"/><rect x="160" y="48" width="7" height="7" rx="1.3" fill="#ffffff"/><rect x="176" y="0" width="7" height="7" rx="1.3" fill="#ffffff"/><rect x="176" y="8" width="7" height="7" rx="1.3" fill="#ffffff"/><rect x="176" y="16" width="7" height="7" rx="1.3" fill="#ffffff"/><rect x="176" y="24" width="7" height="7" rx="1.3" fill="#ffffff"/><rect x="176" y="32" width="7" height="7" rx="1.3" fill="#ffffff"/><rect x="176" y="40" width="7" height="7" rx="1.3" fill="#ffffff"/><rect x="176" y="48" width="7" height="7" rx="1.3" fill="#ffffff"/><rect x="200" y="16" width="7" height="7" rx="1.3" fill="#ffffff"/><rect x="208" y="16" width="7" height="7" rx="1.3" fill="#ffffff"/><rect x="192" y="24" width="7" height="7" rx="1.3" fill="#ffffff"/><rect x="216" y="24" width="7" height="7" rx="1.3" fill="#ffffff"/><rect x="192" y="32" width="7" height="7" rx="1.3" fill="#ffffff"/><rect x="200" y="32" width="7" height="7" rx="1.3" fill="#ffffff"/><rect x="208" y="32" width="7" height="7" rx="1.3" fill="#ffffff"/><rect x="216" y="32" width="7" height="7" rx="1.3" fill="#ffffff"/><rect x="192" y="40" width="7" height="7" rx="1.3" fill="#ffffff"/><rect x="200" y="48" width="7" height="7" rx="1.3" fill="#ffffff"/><rect x="208" y="48" width="7" height="7" rx="1.3" fill="#ffffff"/><rect x="216" y="48" width="7" height="7" rx="1.3" fill="#ffffff"/></svg>
